# generated from PmQm by Jehee Lee
:FULLY-SPECIFIED
:DEGREES
294
root 45.9748002 38.3992 35.90464379 173.1659323 -73.69018064 -171.6925908
RightUpLeg 4.920191351 -1.035566658 0.6218160412
RightLeg 25.97445712 0 0
RightFoot -23.97779268 37.82721985 -14.9453489
RightToes 2.32829e-010 -1.59028e-015 9.93923e-017
Spine -12.9619 6.48979 14.6785
Spine1 16.9032 8.37685 -10.7635
HEad -9.95357 -5.53207 1.71529
LeftShoulder1 9.93923e-017 0 1.22299e-017
LeftArm -10.4968 54.0093 -66.1619
LeftForeArm -4.69278 -3.83271 -5.16164
LeftHand 0.972732 6.82958 -4.8704
RightShoulder 1.98785e-016 -4.96962e-017 1.55301e-017
RightArm 21.128 -23.8806 83.8761
RightForeArm -46.265 25.967 -23.8724
RightHand 1.1413 -10.0446 -6.63461
LeftUpLeg -28.14339449 -3.229282347 0.4824432203
LeftLeg 5.022967369 0 0
LeftFoot 5.527938705 2.011093032 -3.191220586
LeftToes 8.82235e-011 9.04645e-011 1.87288e-011
295
root 44.47126926 38.41137577 34.97661762 -179.3074466 -71.99801523 -179.3576554
RightUpLeg 3.797192358 -3.404288607 -2.271946136
RightLeg 31.37630898 0 0
RightFoot -17.66049824 39.01098682 -19.81299963
RightToes 2.32829e-010 -1.59028e-015 9.93923e-017
Spine -12.66719625 5.540481784 10.99942851
Spine1 15.9615952 7.528856474 -10.68229244
HEad -9.20112049 -5.217998903 2.316593388
LeftShoulder1 9.93923e-017 0 1.22299e-017
LeftArm -11.70516909 52.82736869 -67.28620872
LeftForeArm -5.529452188 -3.703602121 -5.188081799
LeftHand 1.02661 7.3694 -4.41701
RightShoulder 1.98785e-016 -4.96962e-017 1.55301e-017
RightArm 25.11560053 -27.33790153 85.93115987
RightForeArm -48.41120236 24.4836114 -22.94891294
RightHand 1.19146 -10.4042 -6.50393
LeftUpLeg -27.75696319 -2.801844347 0.2983471697
LeftLeg 9.862577388 0 0
LeftFoot 4.980267878 3.336395336 -3.644991705
LeftToes 8.82235e-011 9.04645e-011 1.87288e-011
296
root 43.11062353 38.40759866 34.12463401 -173.3826406 -70.98809791 174.5009349
RightUpLeg 0.5893581628 -4.292301362 -4.703902425
RightLeg 40.30041236 0 0
RightFoot -8.649431548 36.06473146 -27.31562493
RightToes 2.32829e-010 -1.59028e-015 9.93923e-017
Spine -10.80497685 3.879197811 6.711755758
Spine1 14.21047052 5.898573178 -10.27596106
HEad -9.356503806 -4.691262502 2.837931317
LeftShoulder1 9.93923e-017 0 1.22299e-017
LeftArm -11.25042111 49.76714594 -68.94589826
LeftForeArm -6.340785174 -3.82537775 -5.561190529
LeftHand 1.0097 7.20765 -5.05441
RightShoulder 1.98785e-016 -4.96962e-017 1.55301e-017
RightArm 28.6562778 -30.59627422 88.18877302
RightForeArm -51.86194915 22.11632745 -20.82756746
RightHand 1.16096 -10.3732 -5.78301
LeftUpLeg -27.14686016 -2.342896767 -0.091587179
LeftLeg 15.50453199 0 0
LeftFoot 1.504130261 2.388861757 -4.062273358
LeftToes 8.82235e-011 9.04645e-011 1.87288e-011
297
root 41.86795302 38.40860858 33.37167455 -169.5815182 -69.38516036 170.4272658
RightUpLeg -4.343449339 -3.175428221 -6.39424247
RightLeg 50.09010699 -3.098506137 -5.865087545
RightFoot 5.395440059 39.80163009 -15.1758144
RightToes 2.32829e-010 -1.59028e-015 9.93923e-017
Spine -8.615737823 2.739157942 2.825787768
Spine1 13.05120699 4.637527439 -9.763503017
HEad -10.24917151 -4.023258346 2.809232198
LeftShoulder1 9.93923e-017 0 1.22299e-017
LeftArm -9.244655508 44.94620471 -71.2246392
LeftForeArm -7.754399472 -4.268921786 -6.17987125
LeftHand 0.992905 7.03592 -5.03757
RightShoulder 1.98785e-016 -4.96962e-017 1.55301e-017
RightArm 26.74857932 -33.49647376 89.80611261
RightForeArm -50.5587284 20.74354785 -16.03337121
RightHand 1.09086 -10.2491 -4.27313
LeftUpLeg -25.97559744 -2.112107367 0.1301546804
LeftLeg 20.59570284 0 0
LeftFoot -2.409758418 1.676084054 -4.695557622
LeftToes 8.82235e-011 9.04645e-011 1.87288e-011
298
root 40.61289791 38.53700323 32.64368887 -168.6003219 -67.02005846 169.1677626
RightUpLeg -9.342602923 -1.240867012 -7.233440149
RightLeg 57.55356405 -4.418986521 -11.15326292
RightFoot 11.69049994 37.25035255 -8.488304075
RightToes 2.32829e-010 -1.59028e-015 9.93923e-017
Spine -7.156561866 2.192774118 -0.3495186524
Spine1 12.58159011 3.779607961 -8.859403652
HEad -10.95362685 -3.058958446 2.324656645
LeftShoulder1 9.93923e-017 0 1.22299e-017
LeftArm -6.599681884 39.93016714 -73.60455984
LeftForeArm -10.45827374 -5.325537262 -6.581468644
LeftHand 0.970123 6.82072 -4.29005
RightShoulder 1.98785e-016 -4.96962e-017 1.55301e-017
RightArm 20.68931634 -36.20283342 90.30526425
RightForeArm -43.36041459 19.73561349 -9.223474288
RightHand 1.03939 -10.2002 -2.94224
LeftUpLeg -23.61115343 -2.092861981 0.8897200747
LeftLeg 23.44797996 0 0
LeftFoot -4.937388975 2.209541316 -5.966999688
LeftToes 8.82235e-011 9.04645e-011 1.87288e-011
299
root 39.24926818 38.80596671 31.8728035 -169.8358497 -65.13943923 170.1979932
RightUpLeg -13.59320075 -0.2230667765 -6.82041156
RightLeg 61.6206942 -3.690184643 -13.81850993
RightFoot 11.00517207 33.51651407 -5.271213476
RightToes 2.32829e-010 -1.59028e-015 9.93923e-017
Spine -6.580303668 1.426715935 -2.500291036
Spine1 12.02732856 2.53177302 -7.099113957
HEad -10.67315642 -1.707370066 1.845580681
LeftShoulder1 9.93923e-017 0 1.22299e-017
LeftArm -3.809392417 36.06141893 -75.4896582
LeftForeArm -14.22375103 -8.752497789 -5.514277912
LeftHand 0.942205 6.57551 -3.70458
RightShoulder 1.98785e-016 -4.96962e-017 1.55301e-017
RightArm 18.87628383 -39.36248856 90.13882366
RightForeArm -38.50217185 18.41094486 -4.684044826
RightHand 1.03827 -10.3208 -2.49664
LeftUpLeg -19.97382503 -1.929144843 2.004551069
LeftLeg 23.70983215 0 0
LeftFoot -6.457273961 2.641298139 -7.521578206
LeftToes 8.82235e-011 9.04645e-011 1.87288e-011
300
root 37.84824264 39.10022876 31.10323392 -171.8292833 -64.17807758 172.0907655
RightUpLeg -17.03376041 -0.3164257395 -5.439676923
RightLeg 62.29891413 -1.606542645 -12.64799683
RightFoot 7.115818172 29.89201626 -5.025883584
RightToes 2.32829e-010 -1.59028e-015 9.93923e-017
Spine -6.315187585 0.1881540979 -4.080899583
Spine1 11.21637537 0.7403442811 -4.786584006
HEad -9.704885422 -0.1793111848 1.644131506
LeftShoulder1 9.93923e-017 0 1.22299e-017
LeftArm 3.522023335 33.1756349 -76.94828246
LeftForeArm -23.2206879 -14.72302294 -1.994601734
LeftHand 0.92793 6.45217 -3.57146
RightShoulder 1.98785e-016 -4.96962e-017 1.55301e-017
RightArm 20.91748875 -43.21982022 89.5968458
RightForeArm -37.60342559 17.83731527 -3.186553323
RightHand 1.04716 -10.4116 -2.45404
LeftUpLeg -15.78283656 -1.637113285 3.198420839
LeftLeg 22.33707521 0 0
LeftFoot -7.595534053 2.299390419 -8.845077907
LeftToes 8.82235e-011 9.04645e-011 1.87288e-011
301
root 36.4843241 39.3243055 30.38105839 -173.6877637 -63.31896642 173.8758112
RightUpLeg -20.05690952 -0.5640961422 -3.827807706
RightLeg 60.34694412 0.5042484167 -9.831650857
RightFoot 3.88855026 26.39653507 -5.066801335
RightToes 2.32829e-010 -1.59028e-015 9.93923e-017
Spine -6.224798102 -1.022952818 -5.439737597
Spine1 10.74555347 -0.9501929401 -2.762801687
HEad -8.939168264 1.155813541 1.581018609
LeftShoulder1 9.93923e-017 0 1.22299e-017
LeftArm 16.56862281 30.40327029 -78.14285115
LeftForeArm -38.25626847 -20.89606089 4.907431017
LeftHand 0.925915 6.44464 -3.3863
RightShoulder 1.98785e-016 -4.96962e-017 1.55301e-017
RightArm 22.97534893 -47.46687037 88.38872627
RightForeArm -38.47724037 17.9757794 -3.561399452
RightHand 1.02044 -10.2376 -2.25741
LeftUpLeg -11.62366378 -1.034030638 4.167001581
LeftLeg 20.37059257 0 0
LeftFoot -8.321110145 1.694087986 -9.818422738
LeftToes 8.82235e-011 9.04645e-011 1.87288e-011
302
root 35.14469586 39.45480002 29.69694477 -175.049318 -62.14188096 175.1474438
RightUpLeg -22.7872988 -0.7043631358 -2.43720456
RightLeg 56.3560689 2.001023429 -7.41210406
RightFoot 1.417124239 22.82950294 -3.938245839
RightToes 2.32829e-010 -1.59028e-015 9.93923e-017
Spine -6.476834001 -1.996266867 -6.638626845
Spine1 10.81716567 -2.272585215 -1.176215133
HEad -8.783275448 2.163025137 1.510925589
LeftShoulder1 9.93923e-017 0 1.22299e-017
LeftArm 28.24911652 27.30387139 -78.72481338
LeftForeArm -50.97349422 -24.47461644 12.78925711
LeftHand 0.913312 6.34459 -3.16304
RightShoulder 1.98785e-016 -4.96962e-017 1.55301e-017
RightArm 24.95092971 -51.58391205 86.49370238
RightForeArm -40.64563351 18.51131628 -5.096103606
RightHand 0.9969 -10.0451 -2.20697
LeftUpLeg -7.470949108 -0.1715082779 4.805802082
LeftLeg 18.05747326 0 0
LeftFoot -8.621192412 1.311162211 -10.50239756
LeftToes 8.82235e-011 9.04645e-011 1.87288e-011
303
root 33.81548214 39.52211482 29.03800014 -176.0868608 -61.09222698 176.1050486
RightUpLeg -25.09282905 -1.370018918 -1.256280516
RightLeg 50.55047675 3.011850212 -5.608364485
RightFoot -0.6458145614 19.28928161 -2.014265318
RightToes 2.32829e-010 -1.59028e-015 9.93923e-017
Spine -6.788023987 -2.989844041 -7.723762149
Spine1 10.93477683 -3.545371936 0.5403474714
HEad -8.843318695 2.986940174 1.472876773
LeftShoulder1 9.93923e-017 0 1.22299e-017
LeftArm 31.88723707 23.92340025 -78.45912758
LeftForeArm -53.63688285 -26.43298621 17.1456967
LeftHand 0.89027 6.12658 -3.34082
RightShoulder 1.98785e-016 -4.96962e-017 1.55301e-017
RightArm 27.40953019 -55.24304649 84.25524685
RightForeArm -43.19013309 19.08278336 -7.056815929
RightHand 1.02418 -10.1508 -2.66158
LeftUpLeg -3.072142489 0.5103427973 5.166976518
LeftLeg 14.92498973 0 0
LeftFoot -8.729519603 1.238686355 -10.96610725
LeftToes 8.82235e-011 9.04645e-011 1.87288e-011
